<mxfile host="app.diagrams.net" modified="2024-03-10T09:41:32.828Z" agent="Mozilla/5.0 (Windows NT 10.0; Win64; x64) AppleWebKit/537.36 (KHTML, like Gecko) Chrome/122.0.0.0 Safari/537.36" etag="NrXbagov7sXD_niQFMaA" version="24.0.4" type="device">
  <diagram name="Page-1" id="VrgqfTE3O9dD1oBgVT37">
    <mxGraphModel dx="1969" dy="908" grid="1" gridSize="10" guides="1" tooltips="1" connect="1" arrows="1" fold="1" page="1" pageScale="1" pageWidth="850" pageHeight="1100" math="0" shadow="0">
      <root>
        <mxCell id="0" />
        <mxCell id="1" parent="0" />
        <mxCell id="nVUxOTjiVfGgajbKeW7u-1" value="" style="rounded=0;whiteSpace=wrap;html=1;" vertex="1" parent="1">
          <mxGeometry x="30" y="30" width="620" height="420" as="geometry" />
        </mxCell>
        <mxCell id="nVUxOTjiVfGgajbKeW7u-2" value="Khối nguồn" style="rounded=0;whiteSpace=wrap;html=1;" vertex="1" parent="1">
          <mxGeometry x="50" y="40" width="120" height="400" as="geometry" />
        </mxCell>
        <mxCell id="nVUxOTjiVfGgajbKeW7u-3" value="Khối điều khiển" style="rounded=0;whiteSpace=wrap;html=1;" vertex="1" parent="1">
          <mxGeometry x="242.5" y="187.5" width="195" height="105" as="geometry" />
        </mxCell>
        <mxCell id="nVUxOTjiVfGgajbKeW7u-4" value="Khối truyền nhận" style="rounded=0;whiteSpace=wrap;html=1;" vertex="1" parent="1">
          <mxGeometry x="280" y="40" width="120" height="60" as="geometry" />
        </mxCell>
        <mxCell id="nVUxOTjiVfGgajbKeW7u-5" value="Khối định vị" style="rounded=0;whiteSpace=wrap;html=1;" vertex="1" parent="1">
          <mxGeometry x="286.25" y="380" width="107.5" height="60" as="geometry" />
        </mxCell>
        <mxCell id="nVUxOTjiVfGgajbKeW7u-7" value="" style="endArrow=classic;html=1;rounded=0;entryX=0.5;entryY=1;entryDx=0;entryDy=0;exitX=0.5;exitY=0;exitDx=0;exitDy=0;" edge="1" parent="1" source="nVUxOTjiVfGgajbKeW7u-5" target="nVUxOTjiVfGgajbKeW7u-3">
          <mxGeometry width="50" height="50" relative="1" as="geometry">
            <mxPoint x="380" y="310" as="sourcePoint" />
            <mxPoint x="430" y="260" as="targetPoint" />
            <Array as="points">
              <mxPoint x="340" y="380" />
            </Array>
          </mxGeometry>
        </mxCell>
        <mxCell id="nVUxOTjiVfGgajbKeW7u-46" value="UART" style="edgeLabel;html=1;align=center;verticalAlign=middle;resizable=0;points=[];" vertex="1" connectable="0" parent="nVUxOTjiVfGgajbKeW7u-7">
          <mxGeometry x="-0.1151" y="2" relative="1" as="geometry">
            <mxPoint as="offset" />
          </mxGeometry>
        </mxCell>
        <mxCell id="nVUxOTjiVfGgajbKeW7u-9" value="" style="endArrow=classic;html=1;rounded=0;entryX=0.5;entryY=1;entryDx=0;entryDy=0;exitX=0.5;exitY=0;exitDx=0;exitDy=0;" edge="1" parent="1" source="nVUxOTjiVfGgajbKeW7u-3" target="nVUxOTjiVfGgajbKeW7u-4">
          <mxGeometry width="50" height="50" relative="1" as="geometry">
            <mxPoint x="380" y="310" as="sourcePoint" />
            <mxPoint x="430" y="260" as="targetPoint" />
            <Array as="points" />
          </mxGeometry>
        </mxCell>
        <mxCell id="nVUxOTjiVfGgajbKeW7u-47" value="UART" style="edgeLabel;html=1;align=center;verticalAlign=middle;resizable=0;points=[];" vertex="1" connectable="0" parent="nVUxOTjiVfGgajbKeW7u-9">
          <mxGeometry x="-0.1396" y="1" relative="1" as="geometry">
            <mxPoint as="offset" />
          </mxGeometry>
        </mxCell>
        <mxCell id="nVUxOTjiVfGgajbKeW7u-12" value="" style="rounded=0;whiteSpace=wrap;html=1;" vertex="1" parent="1">
          <mxGeometry x="30" y="500" width="620" height="470" as="geometry" />
        </mxCell>
        <mxCell id="nVUxOTjiVfGgajbKeW7u-16" value="Khối điều khiển" style="rounded=0;whiteSpace=wrap;html=1;" vertex="1" parent="1">
          <mxGeometry x="242.5" y="620" width="195" height="105" as="geometry" />
        </mxCell>
        <mxCell id="nVUxOTjiVfGgajbKeW7u-17" value="Khối truyền nhận" style="rounded=0;whiteSpace=wrap;html=1;" vertex="1" parent="1">
          <mxGeometry x="280" y="520" width="120" height="60" as="geometry" />
        </mxCell>
        <mxCell id="nVUxOTjiVfGgajbKeW7u-18" value="" style="endArrow=classic;html=1;rounded=0;exitX=1;exitY=0.5;exitDx=0;exitDy=0;entryX=1;entryY=0.5;entryDx=0;entryDy=0;" edge="1" parent="1" source="nVUxOTjiVfGgajbKeW7u-4" target="nVUxOTjiVfGgajbKeW7u-17">
          <mxGeometry relative="1" as="geometry">
            <mxPoint x="280" y="380" as="sourcePoint" />
            <mxPoint x="710" y="560" as="targetPoint" />
            <Array as="points">
              <mxPoint x="710" y="70" />
              <mxPoint x="710" y="550" />
            </Array>
          </mxGeometry>
        </mxCell>
        <mxCell id="nVUxOTjiVfGgajbKeW7u-19" value="Lora" style="edgeLabel;resizable=0;html=1;;align=center;verticalAlign=middle;" connectable="0" vertex="1" parent="nVUxOTjiVfGgajbKeW7u-18">
          <mxGeometry relative="1" as="geometry" />
        </mxCell>
        <mxCell id="nVUxOTjiVfGgajbKeW7u-21" value="" style="endArrow=classic;html=1;rounded=0;entryX=0.5;entryY=0;entryDx=0;entryDy=0;exitX=0.5;exitY=1;exitDx=0;exitDy=0;" edge="1" parent="1" source="nVUxOTjiVfGgajbKeW7u-17" target="nVUxOTjiVfGgajbKeW7u-16">
          <mxGeometry width="50" height="50" relative="1" as="geometry">
            <mxPoint x="300" y="540" as="sourcePoint" />
            <mxPoint x="350" y="490" as="targetPoint" />
            <Array as="points" />
          </mxGeometry>
        </mxCell>
        <mxCell id="nVUxOTjiVfGgajbKeW7u-30" value="UART" style="edgeLabel;html=1;align=center;verticalAlign=middle;resizable=0;points=[];" vertex="1" connectable="0" parent="nVUxOTjiVfGgajbKeW7u-21">
          <mxGeometry x="0.4286" y="-3" relative="1" as="geometry">
            <mxPoint x="3" y="-9" as="offset" />
          </mxGeometry>
        </mxCell>
        <mxCell id="nVUxOTjiVfGgajbKeW7u-25" value="Khối hiển thị" style="rounded=0;whiteSpace=wrap;html=1;" vertex="1" parent="1">
          <mxGeometry x="330" y="900" width="120" height="60" as="geometry" />
        </mxCell>
        <mxCell id="nVUxOTjiVfGgajbKeW7u-26" value="" style="endArrow=classic;html=1;rounded=0;entryX=0.5;entryY=0;entryDx=0;entryDy=0;exitX=0.75;exitY=1;exitDx=0;exitDy=0;" edge="1" parent="1" source="nVUxOTjiVfGgajbKeW7u-16" target="nVUxOTjiVfGgajbKeW7u-25">
          <mxGeometry width="50" height="50" relative="1" as="geometry">
            <mxPoint x="90" y="860" as="sourcePoint" />
            <mxPoint x="140" y="810" as="targetPoint" />
            <Array as="points" />
          </mxGeometry>
        </mxCell>
        <mxCell id="nVUxOTjiVfGgajbKeW7u-31" value="I2C" style="edgeLabel;html=1;align=center;verticalAlign=middle;resizable=0;points=[];" vertex="1" connectable="0" parent="nVUxOTjiVfGgajbKeW7u-26">
          <mxGeometry x="0.0226" y="-1" relative="1" as="geometry">
            <mxPoint x="1" as="offset" />
          </mxGeometry>
        </mxCell>
        <mxCell id="nVUxOTjiVfGgajbKeW7u-27" value="Khối RFID" style="rounded=0;whiteSpace=wrap;html=1;" vertex="1" parent="1">
          <mxGeometry x="230" y="790" width="120" height="60" as="geometry" />
        </mxCell>
        <mxCell id="nVUxOTjiVfGgajbKeW7u-28" value="" style="endArrow=classic;html=1;rounded=0;exitX=0.5;exitY=0;exitDx=0;exitDy=0;entryX=0.25;entryY=1;entryDx=0;entryDy=0;" edge="1" parent="1" source="nVUxOTjiVfGgajbKeW7u-27" target="nVUxOTjiVfGgajbKeW7u-16">
          <mxGeometry width="50" height="50" relative="1" as="geometry">
            <mxPoint x="90" y="620" as="sourcePoint" />
            <mxPoint x="140" y="570" as="targetPoint" />
            <Array as="points" />
          </mxGeometry>
        </mxCell>
        <mxCell id="nVUxOTjiVfGgajbKeW7u-29" value="SPI" style="edgeLabel;html=1;align=center;verticalAlign=middle;resizable=0;points=[];" vertex="1" connectable="0" parent="nVUxOTjiVfGgajbKeW7u-28">
          <mxGeometry x="0.216" relative="1" as="geometry">
            <mxPoint as="offset" />
          </mxGeometry>
        </mxCell>
        <mxCell id="nVUxOTjiVfGgajbKeW7u-32" value="Transmitter" style="text;html=1;align=center;verticalAlign=middle;whiteSpace=wrap;rounded=0;" vertex="1" parent="1">
          <mxGeometry x="560" y="420" width="60" height="30" as="geometry" />
        </mxCell>
        <mxCell id="nVUxOTjiVfGgajbKeW7u-33" value="Receiver" style="text;html=1;align=center;verticalAlign=middle;whiteSpace=wrap;rounded=0;" vertex="1" parent="1">
          <mxGeometry x="580" y="940" width="60" height="30" as="geometry" />
        </mxCell>
        <mxCell id="nVUxOTjiVfGgajbKeW7u-35" value="" style="endArrow=classic;html=1;rounded=0;entryX=0;entryY=0.5;entryDx=0;entryDy=0;exitX=0.992;exitY=0.075;exitDx=0;exitDy=0;exitPerimeter=0;" edge="1" parent="1" source="nVUxOTjiVfGgajbKeW7u-2" target="nVUxOTjiVfGgajbKeW7u-4">
          <mxGeometry width="50" height="50" relative="1" as="geometry">
            <mxPoint x="490" y="500" as="sourcePoint" />
            <mxPoint x="540" y="450" as="targetPoint" />
          </mxGeometry>
        </mxCell>
        <mxCell id="nVUxOTjiVfGgajbKeW7u-36" value="" style="endArrow=classic;html=1;rounded=0;entryX=0;entryY=0.5;entryDx=0;entryDy=0;exitX=1;exitY=0.5;exitDx=0;exitDy=0;" edge="1" parent="1" source="nVUxOTjiVfGgajbKeW7u-2" target="nVUxOTjiVfGgajbKeW7u-3">
          <mxGeometry width="50" height="50" relative="1" as="geometry">
            <mxPoint x="490" y="500" as="sourcePoint" />
            <mxPoint x="540" y="450" as="targetPoint" />
          </mxGeometry>
        </mxCell>
        <mxCell id="nVUxOTjiVfGgajbKeW7u-37" value="" style="endArrow=classic;html=1;rounded=0;entryX=0;entryY=0.5;entryDx=0;entryDy=0;" edge="1" parent="1" target="nVUxOTjiVfGgajbKeW7u-5">
          <mxGeometry width="50" height="50" relative="1" as="geometry">
            <mxPoint x="170" y="410" as="sourcePoint" />
            <mxPoint x="540" y="450" as="targetPoint" />
            <Array as="points" />
          </mxGeometry>
        </mxCell>
        <mxCell id="nVUxOTjiVfGgajbKeW7u-39" value="Khối nguồn" style="rounded=0;whiteSpace=wrap;html=1;" vertex="1" parent="1">
          <mxGeometry x="50" y="510" width="120" height="450" as="geometry" />
        </mxCell>
        <mxCell id="nVUxOTjiVfGgajbKeW7u-40" value="" style="endArrow=classic;html=1;rounded=0;entryX=0;entryY=0.5;entryDx=0;entryDy=0;" edge="1" parent="1" target="nVUxOTjiVfGgajbKeW7u-17">
          <mxGeometry width="50" height="50" relative="1" as="geometry">
            <mxPoint x="170" y="550" as="sourcePoint" />
            <mxPoint x="540" y="450" as="targetPoint" />
          </mxGeometry>
        </mxCell>
        <mxCell id="nVUxOTjiVfGgajbKeW7u-42" value="" style="endArrow=classic;html=1;rounded=0;entryX=0;entryY=0.5;entryDx=0;entryDy=0;" edge="1" parent="1" target="nVUxOTjiVfGgajbKeW7u-27">
          <mxGeometry width="50" height="50" relative="1" as="geometry">
            <mxPoint x="170" y="820" as="sourcePoint" />
            <mxPoint x="540" y="450" as="targetPoint" />
          </mxGeometry>
        </mxCell>
        <mxCell id="nVUxOTjiVfGgajbKeW7u-43" value="" style="endArrow=classic;html=1;rounded=0;entryX=0;entryY=0.5;entryDx=0;entryDy=0;exitX=1.015;exitY=0.358;exitDx=0;exitDy=0;exitPerimeter=0;" edge="1" parent="1" source="nVUxOTjiVfGgajbKeW7u-39" target="nVUxOTjiVfGgajbKeW7u-16">
          <mxGeometry width="50" height="50" relative="1" as="geometry">
            <mxPoint x="176" y="666" as="sourcePoint" />
            <mxPoint x="540" y="450" as="targetPoint" />
          </mxGeometry>
        </mxCell>
        <mxCell id="nVUxOTjiVfGgajbKeW7u-45" value="" style="endArrow=classic;html=1;rounded=0;entryX=0;entryY=0.5;entryDx=0;entryDy=0;exitX=1.027;exitY=0.939;exitDx=0;exitDy=0;exitPerimeter=0;" edge="1" parent="1" source="nVUxOTjiVfGgajbKeW7u-39" target="nVUxOTjiVfGgajbKeW7u-25">
          <mxGeometry width="50" height="50" relative="1" as="geometry">
            <mxPoint x="490" y="500" as="sourcePoint" />
            <mxPoint x="540" y="450" as="targetPoint" />
          </mxGeometry>
        </mxCell>
      </root>
    </mxGraphModel>
  </diagram>
</mxfile>
